HIERARCHY
ROOT joint_0
{
	OFFSET 0.000000 0.000000 0.000000
	CHANNELS 6 Xposition Yposition Zposition Zrotation Yrotation Xrotation 
	JOINT joint_1
	{
		OFFSET 0.587158 0.057678 95.682007
		CHANNELS 3 Zrotation Yrotation Xrotation
		JOINT joint_2
		{
			OFFSET -7.116699 -0.219910 87.157959
			CHANNELS 3 Zrotation Yrotation Xrotation
			JOINT joint_3
			{
				OFFSET -5.892822 -0.290222 87.151001
				CHANNELS 3 Zrotation Yrotation Xrotation
				JOINT joint_4
				{
					OFFSET 5.544678 -0.099609 123.768066
					CHANNELS 3 Zrotation Yrotation Xrotation
					JOINT joint_5
					{
						OFFSET 41.981201 4.519775 84.257935
						CHANNELS 3 Zrotation Yrotation Xrotation
						End Site
						{
							OFFSET 0.000000 0.000000 0.000000
						}
					}
				}
				JOINT joint_6
				{
					OFFSET 3.940918 -26.976501 69.308105
					CHANNELS 3 Zrotation Yrotation Xrotation
					JOINT joint_7
					{
						OFFSET 4.776123 -152.592468 -16.842041
						CHANNELS 3 Zrotation Yrotation Xrotation
						JOINT joint_8
						{
							OFFSET 54.421875 -30.424072 -248.864014
							CHANNELS 3 Zrotation Yrotation Xrotation
							JOINT joint_9
							{
								OFFSET 42.120117 -33.387878 -236.524963
								CHANNELS 3 Zrotation Yrotation Xrotation
								End Site
								{
									OFFSET 0.000000 0.000000 0.000000
								}
							}
						}
					}
				}
				JOINT joint_10
				{
					OFFSET 2.312012 26.904114 69.425049
					CHANNELS 3 Zrotation Yrotation Xrotation
					JOINT joint_11
					{
						OFFSET 0.971436 152.197815 -20.626953
						CHANNELS 3 Zrotation Yrotation Xrotation
						JOINT joint_12
						{
							OFFSET 49.954102 28.991455 -249.970093
							CHANNELS 3 Zrotation Yrotation Xrotation
							JOINT joint_13
							{
								OFFSET 48.146973 19.598389 -236.919922
								CHANNELS 3 Zrotation Yrotation Xrotation
								End Site
								{
									OFFSET 0.000000 0.000000 0.000000
								}
							}
						}
					}
				}
			}
		}
	}
	JOINT joint_14
	{
		OFFSET 16.305664 -89.442932 -108.224976
		CHANNELS 3 Zrotation Yrotation Xrotation
		JOINT joint_15
		{
			OFFSET -22.282471 13.437134 -412.904968
			CHANNELS 3 Zrotation Yrotation Xrotation
			JOINT joint_16
			{
				OFFSET -45.426025 14.484802 -445.892029
				CHANNELS 3 Zrotation Yrotation Xrotation
				JOINT joint_17
				{
					OFFSET 173.389404 -9.944031 -76.473001
					CHANNELS 3 Zrotation Yrotation Xrotation
					End Site
					{
						OFFSET 0.000000 0.000000 0.000000
					}
				}
			}
		}
	}
	JOINT joint_18
	{
		OFFSET 13.392822 89.408875 -108.653992
		CHANNELS 3 Zrotation Yrotation Xrotation
		JOINT joint_19
		{
			OFFSET -29.032959 24.483521 -411.977966
			CHANNELS 3 Zrotation Yrotation Xrotation
			JOINT joint_20
			{
				OFFSET -30.530029 28.986328 -446.453018
				CHANNELS 3 Zrotation Yrotation Xrotation
				JOINT joint_21
				{
					OFFSET 170.330078 33.400757 -76.698997
					CHANNELS 3 Zrotation Yrotation Xrotation
					End Site
					{
						OFFSET 0.000000 0.000000 0.000000
					}
				}
			}
		}
	}
}
MOTION
Frames: 18
Frame Time: 0.016667
-2254.870361 858.972839 1063.875977 1.212193 2.405473 0.958136 0.082070 -3.905040 -0.529527 0.135057 0.635030 0.136432 0.115039 -0.718793 -0.071507 -0.435044 -4.664544 1.354382 0.000000 0.000000 0.000000 -0.958790 1.643734 1.465001 -0.168296 1.497566 -0.396082 -0.021421 -1.857485 -1.597160 0.000000 0.000000 0.000000 -0.499144 1.733704 -0.025270 0.692640 1.879656 2.152512 -0.117223 -1.574705 0.069791 0.000000 0.000000 0.000000 0.361317 -2.719793 -2.336490 0.358314 1.025933 -0.100455 0.286844 -0.569569 0.093737 0.000000 0.000000 0.000000 0.084885 -3.844525 -4.050337 0.121755 2.286051 0.498221 -0.036188 -0.578096 0.096994 0.000000 0.000000 0.000000 
-2254.499756 858.927185 1063.836060 1.235962 2.421899 0.969476 0.082863 -3.901589 -0.526798 0.135810 0.634042 0.137257 0.115711 -0.716920 -0.072091 -0.431467 -4.681235 1.348494 0.000000 0.000000 0.000000 -0.961052 1.635148 1.479753 -0.174909 1.487907 -0.431188 -0.020162 -1.860373 -1.592338 0.000000 0.000000 0.000000 -0.501667 1.723161 -0.044935 0.694631 1.869455 2.169943 -0.115598 -1.568474 0.075371 0.000000 0.000000 0.000000 0.355044 -2.734972 -2.342921 0.353707 1.066814 -0.102534 0.280308 -0.596390 0.089319 0.000000 0.000000 0.000000 0.076181 -3.838030 -4.054683 0.112565 2.280136 0.492065 -0.046341 -0.593778 0.095510 0.000000 0.000000 0.000000 
-2254.130859 858.876099 1063.796021 1.260858 2.435358 0.980302 0.083150 -3.899906 -0.524201 0.135913 0.634766 0.136086 0.115917 -0.717721 -0.071733 -0.428871 -4.691905 1.343955 0.000000 0.000000 0.000000 -0.961385 1.627948 1.490744 -0.180140 1.480027 -0.459471 -0.020069 -1.860532 -1.591866 0.000000 0.000000 0.000000 -0.504118 1.714208 -0.064731 0.697352 1.860922 2.189132 -0.115146 -1.568189 0.077620 0.000000 0.000000 0.000000 0.348324 -2.746691 -2.348576 0.348548 1.107247 -0.104145 0.273325 -0.622411 0.084751 0.000000 0.000000 0.000000 0.067309 -3.831325 -4.057910 0.103645 2.279675 0.485351 -0.056804 -0.612083 0.094400 0.000000 0.000000 0.000000 
-2253.760254 858.819275 1063.759033 1.289636 2.443057 0.991328 0.081461 -3.897598 -0.525927 0.134491 0.634942 0.136497 0.114456 -0.718307 -0.071868 -0.428659 -4.696346 1.343597 0.000000 0.000000 0.000000 -0.957322 1.621756 1.495938 -0.182517 1.473908 -0.474912 -0.022630 -1.854550 -1.601352 0.000000 0.000000 0.000000 -0.508054 1.708060 -0.084316 0.701674 1.855583 2.212620 -0.116998 -1.580325 0.073647 0.000000 0.000000 0.000000 0.340234 -2.752662 -2.353686 0.341944 1.149468 -0.106194 0.264903 -0.646933 0.079634 0.000000 0.000000 0.000000 0.057642 -3.823547 -4.060783 0.094494 2.288591 0.478153 -0.068281 -0.632717 0.093292 0.000000 0.000000 0.000000 
-2253.391846 858.754883 1063.723022 1.319504 2.447870 1.002187 0.078897 -3.898031 -0.530308 0.132496 0.637361 0.137983 0.112310 -0.719312 -0.072367 -0.429721 -4.697170 1.345443 0.000000 0.000000 0.000000 -0.950858 1.616120 1.498158 -0.183443 1.468751 -0.483705 -0.026310 -1.846209 -1.615209 0.000000 0.000000 0.000000 -0.511813 1.702926 -0.103608 0.706699 1.851320 2.237931 -0.120083 -1.599264 0.066400 0.000000 0.000000 0.000000 0.331606 -2.755366 -2.358032 0.334734 1.191283 -0.108367 0.255939 -0.670054 0.074359 0.000000 0.000000 0.000000 0.047685 -3.815923 -4.062802 0.085518 2.303465 0.470511 -0.080166 -0.655730 0.092465 0.000000 0.000000 0.000000 
-2253.035156 858.682007 1063.686035 1.345931 2.451800 1.012249 0.077840 -3.900576 -0.534387 0.131963 0.638554 0.139259 0.111594 -0.720670 -0.073615 -0.430590 -4.693828 1.346477 0.000000 0.000000 0.000000 -0.949534 1.610752 1.502499 -0.185598 1.463204 -0.497263 -0.027773 -1.843019 -1.620742 0.000000 0.000000 0.000000 -0.516071 1.696740 -0.124837 0.711740 1.846060 2.264286 -0.122476 -1.614994 0.061244 0.000000 0.000000 0.000000 0.324183 -2.754336 -2.360976 0.328475 1.226109 -0.111029 0.248113 -0.690724 0.069726 0.000000 0.000000 0.000000 0.038739 -3.808860 -4.064012 0.077692 2.320667 0.463876 -0.091104 -0.679928 0.092297 0.000000 0.000000 0.000000 
-2252.692139 858.595337 1063.647949 1.367946 2.456409 1.021630 0.078551 -3.908863 -0.540873 0.133512 0.638992 0.142052 0.112863 -0.720695 -0.074914 -0.429760 -4.686242 1.343672 0.000000 0.000000 0.000000 -0.956422 1.605045 1.509121 -0.189815 1.456310 -0.518716 -0.025114 -1.848191 -1.609827 0.000000 0.000000 0.000000 -0.520656 1.688115 -0.149327 0.716564 1.838359 2.291541 -0.123191 -1.625486 0.062183 0.000000 0.000000 0.000000 0.320262 -2.749465 -2.361677 0.325443 1.250032 -0.115253 0.243633 -0.708389 0.066740 0.000000 0.000000 0.000000 0.030759 -3.804682 -4.063387 0.071359 2.341382 0.456732 -0.101016 -0.706362 0.093027 0.000000 0.000000 0.000000 
-2252.360840 858.500244 1063.609009 1.385772 2.460361 1.030368 0.080571 -3.920546 -0.547154 0.136325 0.640323 0.144479 0.115355 -0.722349 -0.077016 -0.428921 -4.673161 1.340307 0.000000 0.000000 0.000000 -0.966721 1.599874 1.517863 -0.195337 1.449495 -0.544960 -0.020099 -1.858899 -1.590106 0.000000 0.000000 0.000000 -0.524755 1.678893 -0.175352 0.721407 1.829988 2.319573 -0.123226 -1.633306 0.065365 0.000000 0.000000 0.000000 0.317676 -2.741203 -2.361087 0.323501 1.267041 -0.120041 0.240401 -0.724011 0.064421 0.000000 0.000000 0.000000 0.024009 -3.801319 -4.062302 0.066375 2.364557 0.450866 -0.109773 -0.733941 0.094499 0.000000 0.000000 0.000000 
-2252.042236 858.403687 1063.567017 1.398873 2.461943 1.038451 0.082961 -3.929799 -0.550143 0.139227 0.640566 0.146778 0.117973 -0.722286 -0.078905 -0.426561 -4.662849 1.334209 0.000000 0.000000 0.000000 -0.975882 1.593398 1.527228 -0.201034 1.441421 -0.573709 -0.015072 -1.873644 -1.573567 0.000000 0.000000 0.000000 -0.526870 1.670302 -0.203676 0.726160 1.821960 2.346496 -0.123795 -1.643887 0.067059 0.000000 0.000000 0.000000 0.310890 -2.731041 -2.360033 0.317330 1.283623 -0.125818 0.233013 -0.740401 0.060227 0.000000 0.000000 0.000000 0.019019 -3.793473 -4.062402 0.062331 2.383902 0.448230 -0.117121 -0.760934 0.096489 0.000000 0.000000 0.000000 
-2251.733887 858.307129 1063.519043 1.403087 2.459251 1.046437 0.086325 -3.935166 -0.547827 0.142468 0.640852 0.146451 0.121247 -0.720618 -0.078914 -0.421824 -4.657324 1.323893 0.000000 0.000000 0.000000 -0.981539 1.585336 1.536725 -0.206587 1.432061 -0.604520 -0.010383 -1.895022 -1.564244 0.000000 0.000000 0.000000 -0.524546 1.663043 -0.234897 0.731040 1.814666 2.372767 -0.125511 -1.660204 0.065462 0.000000 0.000000 0.000000 0.295811 -2.717539 -2.359184 0.302852 1.301091 -0.134013 0.217322 -0.759769 0.052204 0.000000 0.000000 0.000000 0.017553 -3.776242 -4.066007 0.060098 2.395283 0.451523 -0.121721 -0.786540 0.099442 0.000000 0.000000 0.000000 
-2251.438721 858.209045 1063.467041 1.401564 2.454003 1.053684 0.089971 -3.937058 -0.541969 0.145655 0.640339 0.145559 0.124545 -0.719713 -0.078378 -0.415453 -4.652890 1.310457 0.000000 0.000000 0.000000 -0.985164 1.576401 1.546632 -0.212426 1.421993 -0.637872 -0.005641 -1.919875 -1.557425 0.000000 0.000000 0.000000 -0.518506 1.657224 -0.268255 0.735823 1.808292 2.397599 -0.127704 -1.679260 0.062653 0.000000 0.000000 0.000000 0.276696 -2.701951 -2.357972 0.284270 1.318052 -0.142735 0.197628 -0.780380 0.042345 0.000000 0.000000 0.000000 0.018149 -3.754316 -4.070829 0.059085 2.403083 0.458326 -0.124691 -0.812264 0.103149 0.000000 0.000000 0.000000 
-2251.161621 858.111450 1063.417969 1.403689 2.451084 1.060475 0.092093 -3.939924 -0.535913 0.147299 0.640901 0.144676 0.126268 -0.718327 -0.078234 -0.410528 -4.651041 1.300186 0.000000 0.000000 0.000000 -0.989035 1.566336 1.559205 -0.218420 1.410654 -0.672687 -0.001995 -1.939904 -1.552954 0.000000 0.000000 0.000000 -0.515629 1.652366 -0.299286 0.739847 1.803253 2.417941 -0.130200 -1.697401 0.057955 0.000000 0.000000 0.000000 0.261975 -2.690851 -2.357812 0.270054 1.336955 -0.147631 0.182428 -0.801225 0.034454 0.000000 0.000000 0.000000 0.017506 -3.737505 -4.074326 0.057450 2.412632 0.463581 -0.128410 -0.837147 0.106355 0.000000 0.000000 0.000000 
-2250.911621 858.015686 1063.370972 1.413388 2.452183 1.066873 0.091331 -3.941269 -0.530055 0.146009 0.640637 0.143125 0.125161 -0.716673 -0.077285 -0.407209 -4.652589 1.293483 0.000000 0.000000 0.000000 -0.993718 1.553472 1.574982 -0.224597 1.396275 -0.709719 -0.000276 -1.949826 -1.551315 0.000000 0.000000 0.000000 -0.516881 1.648607 -0.326389 0.742599 1.799778 2.431112 -0.133230 -1.714478 0.050153 0.000000 0.000000 0.000000 0.255782 -2.688216 -2.359360 0.264426 1.361198 -0.146126 0.175865 -0.824420 0.030233 0.000000 0.000000 0.000000 0.013761 -3.730796 -4.075319 0.054073 2.427865 0.465415 -0.134393 -0.861955 0.108530 0.000000 0.000000 0.000000 
-2250.680908 857.920227 1063.327026 1.426281 2.455389 1.072834 0.088478 -3.942842 -0.523894 0.142548 0.641443 0.140973 0.121969 -0.715213 -0.075574 -0.404782 -4.657146 1.288898 0.000000 0.000000 0.000000 -0.996423 1.539104 1.593087 -0.230992 1.380512 -0.748398 0.000203 -1.953560 -1.551745 0.000000 0.000000 0.000000 -0.518341 1.645892 -0.352342 0.744596 1.797311 2.440051 -0.136397 -1.730316 0.041139 0.000000 0.000000 0.000000 0.254244 -2.690024 -2.361814 0.263449 1.387577 -0.141045 0.174043 -0.847766 0.028092 0.000000 0.000000 0.000000 0.008829 -3.728884 -4.075018 0.050078 2.444597 0.465825 -0.141087 -0.885780 0.110193 0.000000 0.000000 0.000000 
-2250.450684 857.821655 1063.286987 1.437862 2.459382 1.077993 0.085981 -3.946945 -0.518468 0.139608 0.642025 0.140077 0.119131 -0.714931 -0.075031 -0.403740 -4.660306 1.286952 0.000000 0.000000 0.000000 -0.998624 1.528533 1.607835 -0.236351 1.368812 -0.780016 0.000233 -1.955284 -1.553075 0.000000 0.000000 0.000000 -0.521255 1.645162 -0.378271 0.746598 1.797033 2.448414 -0.138657 -1.741600 0.034699 0.000000 0.000000 0.000000 0.252639 -2.690352 -2.364450 0.262066 1.409036 -0.133721 0.172283 -0.867842 0.026166 0.000000 0.000000 0.000000 0.004006 -3.726236 -4.074268 0.045921 2.458584 0.467606 -0.147565 -0.908104 0.111659 0.000000 0.000000 0.000000 
-2250.212158 857.721619 1063.251953 1.446737 2.462747 1.081768 0.083325 -3.953748 -0.512587 0.136500 0.642289 0.139365 0.116080 -0.716791 -0.074890 -0.403465 -4.660286 1.286257 0.000000 0.000000 0.000000 -0.994851 1.523458 1.614511 -0.239687 1.363716 -0.798548 -0.000583 -1.953193 -1.556047 0.000000 0.000000 0.000000 -0.521441 1.647132 -0.405723 0.748585 1.799076 2.456691 -0.139243 -1.743968 0.032798 0.000000 0.000000 0.000000 0.249689 -2.685061 -2.367546 0.258667 1.421257 -0.123333 0.169312 -0.882253 0.024031 0.000000 0.000000 0.000000 -0.000190 -3.719323 -4.072894 0.041737 2.467296 0.471430 -0.153462 -0.928510 0.113011 0.000000 0.000000 0.000000 
-2249.972656 857.617737 1063.222046 1.454238 2.467592 1.084732 0.079957 -3.966903 -0.507531 0.132837 0.645433 0.139635 0.112373 -0.718436 -0.075056 -0.403322 -4.661727 1.286022 0.000000 0.000000 0.000000 -0.986491 1.521226 1.617695 -0.241931 1.362176 -0.810091 -0.002044 -1.948527 -1.560560 0.000000 0.000000 0.000000 -0.519515 1.650514 -0.433944 0.750519 1.802236 2.464807 -0.138834 -1.741059 0.033594 0.000000 0.000000 0.000000 0.247013 -2.678813 -2.370728 0.255224 1.428193 -0.110853 0.166766 -0.892540 0.022319 0.000000 0.000000 0.000000 -0.004283 -3.712133 -4.070839 0.037426 2.472819 0.476302 -0.159056 -0.946801 0.114084 0.000000 0.000000 0.000000 
-2249.745850 857.505188 1063.189941 1.461286 2.473533 1.087678 0.077146 -3.980404 -0.503530 0.129797 0.647725 0.139771 0.109274 -0.720051 -0.075617 -0.403904 -4.664052 1.287320 0.000000 0.000000 0.000000 -0.981564 1.520625 1.623383 -0.245069 1.361828 -0.824275 -0.001993 -1.947053 -1.559142 0.000000 0.000000 0.000000 -0.517053 1.653451 -0.462522 0.752978 1.804924 2.475834 -0.138121 -1.738418 0.036013 0.000000 0.000000 0.000000 0.244373 -2.673964 -2.371512 0.252148 1.434322 -0.101872 0.164214 -0.904441 0.020513 0.000000 0.000000 0.000000 -0.008193 -3.706956 -4.068914 0.033327 2.478451 0.482362 -0.164358 -0.964893 0.115249 0.000000 0.000000 0.000000 
